<svg width="21" height="21" viewBox="0 0 21 21" fill="none" xmlns="http://www.w3.org/2000/svg">
<path d="M10.4414 1.5C9.62109 1.5 8.83203 1.60547 8.07422 1.81641C7.31641 2.02734 6.60156 2.32812 5.92969 2.71875C5.25781 3.10938 4.65625 3.57422 4.125 4.11328C3.59375 4.65234 3.12891 5.25781 2.73047 5.92969C2.33203 6.60156 2.03125 7.3125 1.82812 8.0625C1.625 8.8125 1.51562 9.60547 1.5 10.4414C1.5 11.2617 1.60547 12.0508 1.81641 12.8086C2.02734 13.5664 2.32812 14.2812 2.71875 14.9531C3.10938 15.625 3.57422 16.2266 4.11328 16.7578C4.65234 17.2891 5.25781 17.7539 5.92969 18.1523C6.60156 18.5508 7.3125 18.8516 8.0625 19.0547C8.8125 19.2578 9.60547 19.3672 10.4414 19.3828C11.2617 19.3828 12.0508 19.2773 12.8086 19.0664C13.5664 18.8555 14.2812 18.5547 14.9531 18.1641C15.625 17.7734 16.2266 17.3086 16.7578 16.7695C17.2891 16.2305 17.7539 15.625 18.1523 14.9531C18.5508 14.2812 18.8516 13.5703 19.0547 12.8203C19.2578 12.0703 19.3672 11.2773 19.3828 10.4414C19.3828 9.62109 19.2773 8.83203 19.0664 8.07422C18.8555 7.31641 18.5547 6.60547 18.1641 5.94141C17.7734 5.27734 17.3047 4.67188 16.7578 4.125C16.2109 3.57812 15.6094 3.11328 14.9531 2.73047C14.2969 2.34766 13.5859 2.04688 12.8203 1.82812C12.0547 1.60938 11.2617 1.5 10.4414 1.5ZM10.4414 0C11.4023 0 12.3242 0.125 13.207 0.375C14.0898 0.625 14.9219 0.976562 15.7031 1.42969C16.4844 1.88281 17.1875 2.42578 17.8125 3.05859C18.4375 3.69141 18.9844 4.39844 19.4531 5.17969C19.9219 5.96094 20.2734 6.78906 20.5078 7.66406C20.7422 8.53906 20.8672 9.46484 20.8828 10.4414C20.8828 11.4023 20.7578 12.3242 20.5078 13.207C20.2578 14.0898 19.9062 14.9219 19.4531 15.7031C19 16.4844 18.457 17.1875 17.8242 17.8125C17.1914 18.4375 16.4844 18.9844 15.7031 19.4531C14.9219 19.9219 14.0938 20.2734 13.2188 20.5078C12.3438 20.7422 11.418 20.8672 10.4414 20.8828C9.48047 20.8828 8.55859 20.7578 7.67578 20.5078C6.79297 20.2578 5.96094 19.9062 5.17969 19.4531C4.39844 19 3.69531 18.457 3.07031 17.8242C2.44531 17.1914 1.89844 16.4844 1.42969 15.7031C0.960938 14.9219 0.609375 14.0938 0.375 13.2188C0.140625 12.3438 0.015625 11.418 0 10.4414C0 9.48047 0.125 8.55859 0.375 7.67578C0.625 6.79297 0.976562 5.96094 1.42969 5.17969C1.88281 4.39844 2.42578 3.69531 3.05859 3.07031C3.69141 2.44531 4.39844 1.89844 5.17969 1.42969C5.96094 0.960938 6.78906 0.609375 7.66406 0.375C8.53906 0.140625 9.46484 0.015625 10.4414 0ZM9.41016 15.9023L8.35547 14.8477L12.6914 10.5L8.35547 6.15234L9.41016 5.09766L14.8125 10.5L9.41016 15.9023Z" fill="black"/>
</svg>
