<svg width="62" height="56" viewBox="0 0 62 56" fill="none" xmlns="http://www.w3.org/2000/svg">
<path d="M45.8182 56H15.2727C11.2221 56 7.33747 54.3909 4.47328 51.5267C1.60909 48.6625 0 44.7778 0 40.7273L0 30.5454C0 26.4949 1.60909 22.6102 4.47328 19.746C7.33747 16.8818 11.2221 15.2727 15.2727 15.2727H45.8182C49.8688 15.2727 53.7534 16.8818 56.6176 19.746C59.4818 22.6102 61.0909 26.4949 61.0909 30.5454V40.7273C61.0909 44.7778 59.4818 48.6625 56.6176 51.5267C53.7534 54.3909 49.8688 56 45.8182 56ZM15.2727 20.3636C12.5723 20.3636 9.98256 21.4363 8.0731 23.3458C6.16363 25.2553 5.09091 27.845 5.09091 30.5454V40.7273C5.09091 43.4276 6.16363 46.0174 8.0731 47.9269C9.98256 49.8363 12.5723 50.9091 15.2727 50.9091H45.8182C48.5186 50.9091 51.1084 49.8363 53.0178 47.9269C54.9273 46.0174 56 43.4276 56 40.7273V30.5454C56 27.845 54.9273 25.2553 53.0178 23.3458C51.1084 21.4363 48.5186 20.3636 45.8182 20.3636H15.2727Z" fill="white"/>
<path d="M43.2727 56C42.5976 56 41.9502 55.7318 41.4728 55.2545C40.9954 54.7771 40.7273 54.1296 40.7273 53.4545V15.2727C40.7273 12.5723 39.6545 9.98256 37.7451 8.07309C35.8356 6.16363 33.2458 5.09091 30.5454 5.09091C27.845 5.09091 25.2553 6.16363 23.3458 8.07309C21.4363 9.98256 20.3636 12.5723 20.3636 15.2727V53.4545C20.3636 54.1296 20.0954 54.7771 19.6181 55.2545C19.1407 55.7318 18.4933 56 17.8182 56C17.1431 56 16.4956 55.7318 16.0183 55.2545C15.5409 54.7771 15.2727 54.1296 15.2727 53.4545V15.2727C15.2727 11.2221 16.8818 7.33747 19.746 4.47328C22.6102 1.60909 26.4949 0 30.5454 0C34.596 0 38.4807 1.60909 41.3449 4.47328C44.2091 7.33747 45.8182 11.2221 45.8182 15.2727V53.4545C45.8182 54.1296 45.55 54.7771 45.0726 55.2545C44.5953 55.7318 43.9478 56 43.2727 56Z" fill="white"/>
<path d="M22.5273 32.0982H12.0655C11.3904 32.0982 10.7429 31.83 10.2656 31.3526C9.7882 30.8753 9.52002 30.2278 9.52002 29.5527C9.52002 28.8776 9.7882 28.2302 10.2656 27.7528C10.7429 27.2754 11.3904 27.0073 12.0655 27.0073H22.5273C23.2024 27.0073 23.8498 27.2754 24.3272 27.7528C24.8046 28.2302 25.0727 28.8776 25.0727 29.5527C25.0727 30.2278 24.8046 30.8753 24.3272 31.3526C23.8498 31.83 23.2024 32.0982 22.5273 32.0982Z" fill="white"/>
<path d="M47.9819 32.0982H37.5201C36.845 32.0982 36.1975 31.83 35.7202 31.3526C35.2428 30.8753 34.9746 30.2278 34.9746 29.5527C34.9746 28.8776 35.2428 28.2302 35.7202 27.7528C36.1975 27.2754 36.845 27.0073 37.5201 27.0073H47.9819C48.657 27.0073 49.3044 27.2754 49.7818 27.7528C50.2592 28.2302 50.5273 28.8776 50.5273 29.5527C50.5273 30.2278 50.2592 30.8753 49.7818 31.3526C49.3044 31.83 48.657 32.0982 47.9819 32.0982Z" fill="white"/>
<path d="M22.5273 42.28H12.0655C11.3904 42.28 10.7429 42.0118 10.2656 41.5344C9.7882 41.0571 9.52002 40.4096 9.52002 39.7345C9.52002 39.0594 9.7882 38.412 10.2656 37.9346C10.7429 37.4573 11.3904 37.1891 12.0655 37.1891H22.5273C23.2024 37.1891 23.8498 37.4573 24.3272 37.9346C24.8046 38.412 25.0727 39.0594 25.0727 39.7345C25.0727 40.4096 24.8046 41.0571 24.3272 41.5344C23.8498 42.0118 23.2024 42.28 22.5273 42.28Z" fill="white"/>
<path d="M47.9819 42.28H37.5201C36.845 42.28 36.1975 42.0118 35.7202 41.5344C35.2428 41.0571 34.9746 40.4096 34.9746 39.7345C34.9746 39.0594 35.2428 38.412 35.7202 37.9346C36.1975 37.4573 36.845 37.1891 37.5201 37.1891H47.9819C48.657 37.1891 49.3044 37.4573 49.7818 37.9346C50.2592 38.412 50.5273 39.0594 50.5273 39.7345C50.5273 40.4096 50.2592 41.0571 49.7818 41.5344C49.3044 42.0118 48.657 42.28 47.9819 42.28Z" fill="white"/>
</svg>
