<svg width="56" height="56" viewBox="0 0 56 56" fill="none" xmlns="http://www.w3.org/2000/svg">
<path d="M28 46.1067C27.3811 46.1067 26.7876 45.8608 26.35 45.4232C25.9125 44.9857 25.6666 44.3922 25.6666 43.7733V28C25.6666 27.3812 25.9125 26.7877 26.35 26.3501C26.7876 25.9125 27.3811 25.6667 28 25.6667C28.6188 25.6667 29.2123 25.9125 29.6499 26.3501C30.0875 26.7877 30.3333 27.3812 30.3333 28V43.7733C30.3333 44.3922 30.0875 44.9857 29.6499 45.4232C29.2123 45.8608 28.6188 46.1067 28 46.1067Z" fill="white"/>
<path d="M27.9999 30.3333C27.6929 30.3351 27.3884 30.2762 27.1042 30.1601C26.8199 30.044 26.5613 29.8729 26.3433 29.6567L19.0866 22.4C18.6472 21.9606 18.4004 21.3647 18.4004 20.7433C18.4004 20.122 18.6472 19.526 19.0866 19.0867C19.526 18.6473 20.1219 18.4005 20.7433 18.4005C21.3646 18.4005 21.9606 18.6473 22.3999 19.0867L27.9999 24.71L33.5999 19.0867C34.0393 18.6473 34.6352 18.4005 35.2566 18.4005C35.878 18.4005 36.4739 18.6473 36.9133 19.0867C37.3526 19.526 37.5995 20.122 37.5995 20.7433C37.5995 21.3647 37.3526 21.9606 36.9133 22.4L29.6566 29.6567C29.4386 29.8729 29.18 30.044 28.8957 30.1601C28.6114 30.2762 28.307 30.3351 27.9999 30.3333Z" fill="white"/>
<path d="M38.2666 46.1067H17.7332C17.1144 46.1067 16.5209 45.8608 16.0833 45.4232C15.6457 44.9857 15.3999 44.3922 15.3999 43.7733C15.3999 43.1545 15.6457 42.561 16.0833 42.1234C16.5209 41.6858 17.1144 41.44 17.7332 41.44H38.2666C38.8854 41.44 39.4789 41.6858 39.9165 42.1234C40.3541 42.561 40.5999 43.1545 40.5999 43.7733C40.5999 44.3922 40.3541 44.9857 39.9165 45.4232C39.4789 45.8608 38.8854 46.1067 38.2666 46.1067Z" fill="white"/>
<path d="M30.5666 56H25.4333C22.7742 55.9938 20.2257 54.9348 18.3455 53.0545C16.4652 51.1742 15.4061 48.6258 15.4 45.9667V43.7733C15.4236 39.6518 14.114 35.633 11.6666 32.3167C9.09043 28.8399 7.69983 24.6272 7.69995 20.3C7.7106 17.1166 8.46979 13.9804 9.91618 11.1445C11.3626 8.30868 13.4556 5.85276 16.0263 3.9751C18.597 2.09744 21.5733 0.85068 24.7147 0.335513C27.8561 -0.179654 31.0747 0.0512123 34.1105 1.00947C37.1462 1.96772 39.9141 3.6265 42.1904 5.85184C44.4668 8.07718 46.1879 10.8067 47.2148 13.8199C48.2416 16.8332 48.5454 20.0457 48.1016 23.198C47.6578 26.3503 46.4788 29.3541 44.6599 31.9667C42.123 35.4256 40.7062 39.5784 40.5999 43.8667V46.0367C40.5754 48.6836 39.5082 51.2141 37.6299 53.0793C35.7516 54.9445 33.2137 55.994 30.5666 56ZM28 4.66667C25.1158 4.67704 22.2906 5.48386 19.836 6.99812C17.3814 8.51238 15.3927 10.6752 14.0894 13.2481C12.7861 15.8209 12.2188 18.7038 12.45 21.5786C12.6813 24.4535 13.7021 27.2086 15.4 29.54C18.4529 33.6554 20.0902 38.6492 20.0666 43.7733V45.9667C20.0666 47.39 20.632 48.755 21.6385 49.7615C22.6449 50.7679 24.01 51.3333 25.4333 51.3333H30.5666C31.9899 51.3333 33.355 50.7679 34.3614 49.7615C35.3679 48.755 35.9333 47.39 35.9333 45.9667V43.7967C36.0418 38.5569 37.7517 33.4759 40.8333 29.2367C42.9936 26.1603 43.9637 22.4044 43.5633 18.6667C43.1739 15.1301 41.6071 11.827 39.1147 9.28804C36.6222 6.74903 33.3487 5.12143 29.82 4.66667C29.2138 4.63284 28.6061 4.63284 28 4.66667Z" fill="white"/>
</svg>
