<svg width="73" height="56" viewBox="0 0 73 56" fill="none" xmlns="http://www.w3.org/2000/svg">
<path d="M30.1487 42.2846C29.869 42.3277 29.5843 42.3277 29.3046 42.2846L15.2878 37.974C11.7303 36.9038 8.5044 34.9444 5.9147 32.2809C3.325 29.6173 1.45703 26.3376 0.487229 22.7514C0.00745777 21.0203 -0.119693 19.2104 0.11332 17.4291C0.346334 15.6478 0.934764 13.9315 1.8437 12.382C2.79887 10.7126 4.09664 9.26443 5.65166 8.1326C7.20667 7.00077 8.98369 6.21099 10.8658 5.8152C12.748 5.41941 14.6926 5.42658 16.5718 5.83624C18.4509 6.2459 20.2221 7.04876 21.7687 8.19203C22.9024 5.5949 24.8161 3.41483 27.2444 1.95405C29.6727 0.493278 32.4953 -0.175833 35.3209 0.0394834C38.1465 0.2548 40.8351 1.34388 43.0141 3.15573C45.193 4.96758 46.7542 7.41244 47.4813 10.1514C48.4324 13.748 48.4469 17.5282 47.5235 21.1321C46.6001 24.7359 44.7696 28.0434 42.2062 30.7395L32.1984 41.32C31.6666 41.8958 30.9314 42.2418 30.1487 42.2846ZM13.6902 11.5681C13.0192 11.5589 12.35 11.64 11.7007 11.8093C9.73994 12.3442 8.07086 13.634 7.05856 15.3964C6.55124 16.2612 6.22308 17.2193 6.09362 18.2136C5.96415 19.2079 6.03603 20.218 6.30497 21.184C7.00098 23.7789 8.34984 26.1524 10.223 28.0784C12.0962 30.0044 14.4314 31.4186 17.006 32.1864L29.0635 35.8338L37.8052 26.5797C39.664 24.6384 40.9945 22.2533 41.6699 19.6518C42.3454 17.0503 42.3432 14.3192 41.6636 11.7188C41.4046 10.7468 40.9566 9.8354 40.3453 9.03659C39.7339 8.23779 38.9711 7.56729 38.1005 7.0634C37.2299 6.55951 36.2685 6.23211 35.2714 6.09992C34.2742 5.96773 33.2607 6.03333 32.2889 6.29297C31.3175 6.55163 30.4068 6.99977 29.6092 7.61163C28.8117 8.2235 28.1429 8.987 27.6415 9.85823C27.14 10.7295 26.8158 11.6912 26.6873 12.6882C26.5589 13.6852 26.6288 14.6978 26.8931 15.6677C26.9223 15.9281 26.9223 16.191 26.8931 16.4514C26.9148 17.1359 26.7027 17.8075 26.2918 18.3554C25.8808 18.9033 25.2956 19.2949 24.6324 19.4658C23.8703 19.6207 23.0778 19.4751 22.4206 19.0594C21.7633 18.6437 21.2922 17.9901 21.1055 17.2351C20.6716 15.6027 19.708 14.1605 18.3659 13.1349C17.0239 12.1092 15.3793 11.5582 13.6902 11.5681Z" fill="white"/>
<path d="M51.9124 56C51.4186 56.0007 50.9323 55.8802 50.496 55.6489C50.0597 55.4176 49.687 55.0827 49.4105 54.6737L44.6478 47.6803C43.3108 45.72 42.4957 43.4512 42.2794 41.0883C42.0631 38.7254 42.4529 36.3463 43.4119 34.1759C43.8936 33.0676 44.5927 32.0671 45.4677 31.2336C46.3426 30.4 47.3758 29.7503 48.5062 29.3228C50.7884 28.4458 53.3255 28.5109 55.5598 29.5036C57.679 30.4106 59.3718 32.0927 60.2924 34.2061C62.545 33.4596 64.9987 33.6101 67.1433 34.6262C69.2879 35.6424 70.9583 37.446 71.8073 39.6621C72.2472 40.7856 72.4579 41.9859 72.4268 43.1921C72.3957 44.3983 72.1236 45.5861 71.6264 46.6856C70.6611 48.8603 69.1535 50.7507 67.2481 52.1758C65.3428 53.6009 63.1034 54.5129 60.7445 54.8244L52.3646 55.9698L51.9124 56ZM51.9124 34.7185C51.5218 34.7275 51.1351 34.7988 50.7669 34.9295C49.9846 35.2399 49.3563 35.8466 49.0186 36.6176C48.4724 37.8471 48.2494 39.1959 48.3707 40.5359C48.4921 41.8758 48.9537 43.1626 49.7119 44.2741L53.4196 49.7301L59.9909 48.8559C61.3175 48.6809 62.5751 48.1612 63.6383 47.3487C64.714 46.5719 65.5749 45.5347 66.1402 44.3344C66.457 43.5513 66.457 42.6758 66.1402 41.8927C65.9956 41.5001 65.7708 41.1419 65.4802 40.8409C65.1896 40.5399 64.8395 40.3027 64.4522 40.1444C64.0719 39.9784 63.6614 39.8927 63.2464 39.8927C62.8315 39.8927 62.421 39.9784 62.0407 40.1444C61.2526 40.441 60.6134 41.0369 60.2622 41.8023C59.9785 42.4255 59.491 42.9335 58.8801 43.2427C58.2691 43.5519 57.5711 43.6439 56.9009 43.5035C56.2308 43.3632 55.6283 42.9988 55.1928 42.4705C54.7573 41.9421 54.5146 41.2812 54.5048 40.5965C54.4972 40.1722 54.5794 39.751 54.7459 39.3606C54.9391 38.9844 55.051 38.5718 55.0743 38.1495C55.0976 37.7272 55.0318 37.3047 54.8811 36.9095C54.7304 36.5143 54.4983 36.1553 54.1997 35.8557C53.9012 35.5561 53.5429 35.3227 53.1483 35.1707C52.7427 34.9288 52.2908 34.7748 51.822 34.7185H51.9124Z" fill="white"/>
</svg>
